<svg width="65" height="65" viewBox="0 0 65 65" fill="none" xmlns="http://www.w3.org/2000/svg">
<path d="M28.9656 24.2044V27.9338H26.2356V32.4919H28.9656V46.0417H34.5773V32.4919H38.3419C38.3419 32.4919 38.6967 30.3063 38.8673 27.9148H34.599V24.8002C34.599 24.3317 35.211 23.7061 35.8177 23.7061H38.8727V18.9583H34.7154C28.8275 18.9583 28.9656 23.5219 28.9656 24.2044Z" fill="white"/>
<path d="M16.25 10.8333C14.8134 10.8333 13.4357 11.404 12.4198 12.4198C11.404 13.4357 10.8333 14.8134 10.8333 16.25V48.75C10.8333 50.1866 11.404 51.5643 12.4198 52.5802C13.4357 53.596 14.8134 54.1667 16.25 54.1667H48.75C50.1866 54.1667 51.5643 53.596 52.5802 52.5802C53.596 51.5643 54.1667 50.1866 54.1667 48.75V16.25C54.1667 14.8134 53.596 13.4357 52.5802 12.4198C51.5643 11.404 50.1866 10.8333 48.75 10.8333H16.25ZM16.25 5.41667H48.75C51.6232 5.41667 54.3787 6.55804 56.4103 8.58968C58.442 10.6213 59.5833 13.3768 59.5833 16.25V48.75C59.5833 51.6232 58.442 54.3787 56.4103 56.4103C54.3787 58.442 51.6232 59.5833 48.75 59.5833H16.25C13.3768 59.5833 10.6213 58.442 8.58968 56.4103C6.55803 54.3787 5.41667 51.6232 5.41667 48.75V16.25C5.41667 13.3768 6.55803 10.6213 8.58968 8.58968C10.6213 6.55804 13.3768 5.41667 16.25 5.41667V5.41667Z" fill="white"/>
</svg>
