<svg width="62" height="62" viewBox="0 0 62 62" fill="none" xmlns="http://www.w3.org/2000/svg">
<path fill-rule="evenodd" clip-rule="evenodd" d="M19.2846 2.75383C22.3148 2.61433 23.281 2.58333 31 2.58333C38.719 2.58333 39.6852 2.61691 42.7128 2.75383C45.7405 2.89074 47.8072 3.37383 49.6155 4.07391C51.5091 4.78949 53.227 5.90808 54.6478 7.35474C56.0945 8.77299 57.2105 10.4883 57.9235 12.3845C58.6262 14.1928 59.1067 16.2595 59.2462 19.282C59.3857 22.3174 59.4167 23.2836 59.4167 31C59.4167 38.719 59.3831 39.6852 59.2462 42.7154C59.1093 45.7379 58.6262 47.8046 57.9235 49.6129C57.2105 51.5093 56.0926 53.2275 54.6478 54.6478C53.227 56.0945 51.5091 57.2105 49.6155 57.9235C47.8072 58.6262 45.7405 59.1067 42.718 59.2462C39.6852 59.3857 38.719 59.4167 31 59.4167C23.281 59.4167 22.3148 59.3831 19.2846 59.2462C16.2621 59.1092 14.1954 58.6262 12.3871 57.9235C10.4907 57.2104 8.77254 56.0926 7.35217 54.6478C5.90648 53.2287 4.78773 51.5114 4.07392 49.6155C3.37384 47.8072 2.89334 45.7405 2.75384 42.718C2.61434 39.6826 2.58334 38.7164 2.58334 31C2.58334 23.281 2.61692 22.3148 2.75384 19.2872C2.89075 16.2595 3.37384 14.1928 4.07392 12.3845C4.78879 10.4885 5.90839 8.77122 7.35475 7.35216C8.77311 5.90679 10.4896 4.78806 12.3845 4.07391C14.1928 3.37383 16.2595 2.89333 19.282 2.75383H19.2846ZM42.4829 7.86883C39.4863 7.73191 38.5873 7.7035 31 7.7035C23.4128 7.7035 22.5138 7.73191 19.5171 7.86883C16.7452 7.99541 15.2417 8.45783 14.2393 8.84791C12.9141 9.36458 11.966 9.97683 10.9714 10.9714C10.0286 11.8886 9.30305 13.0052 8.84792 14.2393C8.45784 15.2417 7.99542 16.7452 7.86884 19.5171C7.73192 22.5137 7.7035 23.4127 7.7035 31C7.7035 38.5872 7.73192 39.4862 7.86884 42.4829C7.99542 45.2548 8.45784 46.7583 8.84792 47.7607C9.30259 48.9929 10.0285 50.1115 10.9714 51.0286C11.8885 51.9715 13.0071 52.6974 14.2393 53.1521C15.2417 53.5422 16.7452 54.0046 19.5171 54.1312C22.5138 54.2681 23.4102 54.2965 31 54.2965C38.5898 54.2965 39.4863 54.2681 42.4829 54.1312C45.2548 54.0046 46.7583 53.5422 47.7607 53.1521C49.0859 52.6354 50.034 52.0232 51.0286 51.0286C51.9715 50.1115 52.6974 48.9929 53.1521 47.7607C53.5422 46.7583 54.0046 45.2548 54.1312 42.4829C54.2681 39.4862 54.2965 38.5872 54.2965 31C54.2965 23.4127 54.2681 22.5137 54.1312 19.5171C54.0046 16.7452 53.5422 15.2417 53.1521 14.2393C52.6354 12.9141 52.0232 11.966 51.0286 10.9714C50.1113 10.0287 48.9947 9.30312 47.7607 8.84791C46.7583 8.45783 45.2548 7.99541 42.4829 7.86883V7.86883ZM27.3704 39.7601C29.3975 40.6039 31.6546 40.7178 33.7562 40.0823C35.8579 39.4468 37.6738 38.1014 38.8937 36.2758C40.1136 34.4502 40.6618 32.2577 40.4448 30.0728C40.2278 27.888 39.2589 25.8462 37.7038 24.2962C36.7124 23.3055 35.5136 22.5468 34.1939 22.075C32.8741 21.6031 31.4661 21.4297 30.0713 21.5673C28.6765 21.7048 27.3295 22.15 26.1273 22.8706C24.9252 23.5912 23.8978 24.5694 23.119 25.7348C22.3403 26.9001 21.8297 28.2237 21.6238 29.6101C21.418 30.9965 21.5221 32.4113 21.9287 33.7526C22.3353 35.0939 23.0342 36.3284 23.9752 37.3672C24.9161 38.406 26.0757 39.2232 27.3704 39.7601ZM20.6718 20.6718C22.0281 19.3155 23.6383 18.2396 25.4104 17.5056C27.1825 16.7716 29.0819 16.3938 31 16.3938C32.9181 16.3938 34.8175 16.7716 36.5896 17.5056C38.3617 18.2396 39.9719 19.3155 41.3282 20.6718C42.6845 22.0281 43.7604 23.6383 44.4944 25.4104C45.2284 27.1825 45.6062 29.0819 45.6062 31C45.6062 32.9181 45.2284 34.8174 44.4944 36.5896C43.7604 38.3617 42.6845 39.9718 41.3282 41.3282C38.589 44.0674 34.8738 45.6062 31 45.6062C27.1262 45.6062 23.411 44.0674 20.6718 41.3282C17.9326 38.589 16.3938 34.8738 16.3938 31C16.3938 27.1262 17.9326 23.411 20.6718 20.6718V20.6718ZM48.8457 18.569C49.1818 18.2519 49.4508 17.8707 49.637 17.4478C49.8231 17.0249 49.9224 16.5689 49.9292 16.1069C49.9359 15.6449 49.8499 15.1862 49.6762 14.7581C49.5025 14.3299 49.2446 13.941 48.9179 13.6143C48.5912 13.2875 48.2022 13.0297 47.7741 12.856C47.3459 12.6823 46.8873 12.5963 46.4253 12.603C45.9633 12.6097 45.5073 12.7091 45.0844 12.8952C44.6615 13.0813 44.2802 13.3504 43.9632 13.6865C43.3466 14.3402 43.009 15.2084 43.0221 16.1069C43.0352 17.0054 43.3979 17.8634 44.0333 18.4988C44.6687 19.1342 45.5268 19.497 46.4253 19.5101C47.3238 19.5232 48.192 19.1856 48.8457 18.569V18.569Z" fill="white"/>
</svg>
