<svg width="62" height="62" viewBox="0 0 62 62" fill="none" xmlns="http://www.w3.org/2000/svg">
<g clip-path="url(#clip0_9_25)">
<path fill-rule="evenodd" clip-rule="evenodd" d="M44.9888 37.1535C44.2189 36.7686 40.4447 34.9137 39.742 34.6554C39.0393 34.3997 38.5278 34.2731 38.0137 35.0429C37.5022 35.8076 36.0323 37.5384 35.5854 38.0499C35.1359 38.564 34.689 38.626 33.9217 38.2437C33.1545 37.8562 30.6797 37.0476 27.7476 34.4332C25.4665 32.3976 23.9243 29.884 23.4773 29.1142C23.0304 28.3469 23.4283 27.931 23.8132 27.5487C24.1593 27.2051 24.5804 26.6522 24.9653 26.2053C25.3502 25.7558 25.4768 25.4355 25.7326 24.9214C25.9909 24.4099 25.8617 23.963 25.668 23.5781C25.4768 23.1932 23.9423 19.4137 23.3017 17.8767C22.6791 16.3809 22.0462 16.585 21.576 16.5592C21.1265 16.5385 20.615 16.5333 20.1035 16.5333C19.592 16.5333 18.7602 16.7245 18.0575 17.4943C17.3522 18.2616 15.3708 20.119 15.3708 23.8984C15.3708 27.6752 18.1195 31.3255 18.5044 31.8396C18.8893 32.3511 23.9165 40.1062 31.6174 43.431C33.4516 44.2215 34.8802 44.6942 35.9936 45.0456C37.8329 45.632 39.5069 45.5493 40.8296 45.3504C42.3021 45.1308 45.3711 43.493 46.0118 41.7002C46.6498 39.9073 46.6498 38.3702 46.4587 38.0499C46.2675 37.7296 45.756 37.5384 44.9862 37.1535H44.9888ZM30.9819 56.2779H30.9716C26.3976 56.2787 21.9076 55.0492 17.9722 52.7181L17.0422 52.1652L7.37542 54.7021L9.95617 45.2781L9.34908 44.3119C6.79194 40.2415 5.43868 35.5306 5.44567 30.7236C5.45083 16.6444 16.9053 5.18992 30.9922 5.18992C37.8122 5.18992 44.2241 7.85075 49.0446 12.6764C51.4222 15.0442 53.3067 17.86 54.5891 20.9609C55.8715 24.0618 56.5263 27.3861 56.5156 30.7417C56.5104 44.8208 45.0559 56.2779 30.9819 56.2779V56.2779ZM52.7129 9.01067C49.8666 6.14555 46.4799 3.8738 42.7492 2.32707C39.0185 0.78033 35.0179 -0.0106371 30.9793 -9.52858e-07C14.0482 -9.52858e-07 0.2635 13.7821 0.258333 30.721C0.25575 36.1357 1.66883 41.4212 4.35808 46.0789L0 62L16.2853 57.7272C20.7903 60.1816 25.8387 61.4677 30.969 61.4678H30.9819C47.9131 61.4678 61.6977 47.6857 61.7029 30.7442C61.7154 26.7072 60.9273 22.7078 59.3842 18.9773C57.8411 15.2467 55.5736 11.8592 52.7129 9.01067" fill="white"/>
</g>
<defs>
<clipPath id="clip0_9_25">
<rect width="62" height="62" fill="white"/>
</clipPath>
</defs>
</svg>
